M48
; DRILL file {KiCad (5.1.2)-1} date 13/05/2019 21:13:24
; FORMAT={-:-/ absolute / inch / decimal}
; #@! TF.CreationDate,2019-05-13T21:13:24+02:00
; #@! TF.GenerationSoftware,Kicad,Pcbnew,(5.1.2)-1
FMAT,2
INCH
T1C0.0157
T2C0.0276
T3C0.0299
T4C0.0315
T5C0.0354
T6C0.0394
T7C0.0402
T8C0.0433
T9C0.0472
T10C0.0551
T11C0.1260
T12C0.1378
%
G90
G05
T1
X3.65Y-2.95
X3.6764Y-2.7736
X4.585Y-2.315
X4.64Y-2.315
X4.655Y-2.515
X4.69Y-2.315
X4.7Y-2.375
X4.71Y-2.515
X4.745Y-2.315
X4.755Y-2.375
X4.755Y-2.445
X4.765Y-2.515
X4.795Y-2.315
X4.81Y-2.375
X4.81Y-2.445
X4.81Y-2.515
T2
X4.45Y-3.0
X4.45Y-3.2
X4.75Y-3.1
X4.8Y-3.15
X4.85Y-3.1
X3.85Y-3.0
X3.85Y-3.2
X4.05Y-3.0
X4.05Y-3.2
X4.25Y-3.0
X4.25Y-3.2
T3
X2.6Y-1.45
X2.6Y-1.55
X2.6Y-1.65
X2.6Y-1.75
X2.7Y-1.5
X2.7Y-1.6
X2.7Y-1.7
X2.7Y-1.8
T4
X3.6Y-3.0
X3.6Y-3.3
X2.8902Y-3.5
X2.9902Y-3.5
X3.0902Y-3.5
X3.1902Y-3.5
X3.25Y-1.6
X3.2902Y-3.5
X3.35Y-1.6
X3.3902Y-3.5
X3.45Y-1.6
X3.4902Y-3.5
X3.55Y-1.6
X3.5902Y-3.5
X3.65Y-1.6
X3.6902Y-3.5
X3.75Y-1.6
X3.7902Y-3.5
X3.85Y-1.6
X3.95Y-1.6
X3.95Y-3.5
X4.05Y-3.5
X4.15Y-1.6
X4.15Y-3.5
X4.25Y-1.6
X4.25Y-3.5
X4.35Y-1.6
X4.35Y-3.5
X4.45Y-1.6
X4.45Y-3.5
X4.55Y-1.6
X4.55Y-3.5
X4.65Y-1.6
X4.65Y-3.5
X2.75Y-2.7
X2.75Y-2.8
X2.75Y-2.9
X2.75Y-3.0
X3.05Y-2.7
X3.05Y-2.8
X3.05Y-2.9
X3.05Y-3.0
T5
X3.325Y-3.0
X3.325Y-3.3
T6
X3.95Y-3.5
X4.05Y-3.5
X4.15Y-3.5
X4.25Y-3.5
X4.35Y-3.5
X4.45Y-3.5
X4.55Y-3.5
X4.65Y-3.5
X3.45Y-1.6
X3.55Y-1.6
X3.65Y-1.6
X3.75Y-1.6
X3.85Y-1.6
X3.95Y-1.6
X3.35Y-2.5031
X3.35Y-2.7
X2.86Y-1.405
X2.96Y-1.405
X3.06Y-1.405
X4.15Y-1.6
X4.25Y-1.6
X4.35Y-1.6
X4.45Y-1.6
X4.55Y-1.6
X4.65Y-1.6
X2.35Y-3.375
X2.5469Y-3.375
X3.85Y-2.585
X4.0469Y-2.585
X3.0902Y-3.5
X3.1902Y-3.5
X3.2902Y-3.5
X3.3902Y-3.5
X3.4902Y-3.5
X3.5902Y-3.5
X3.6902Y-3.5
X3.7902Y-3.5
T7
X4.2Y-3.85
X4.2Y-3.95
X4.2Y-4.05
X3.4Y-3.85
X3.4Y-3.95
X3.4Y-4.05
X2.135Y-3.85
X2.135Y-3.95
X2.135Y-4.05
X4.6Y-3.85
X4.6Y-3.95
X4.6Y-4.05
X3.8Y-3.85
X3.8Y-3.95
X3.8Y-4.05
X2.6Y-3.85
X2.6Y-3.95
X2.6Y-4.05
X3.0Y-3.85
X3.0Y-3.95
X3.0Y-4.05
T8
X3.925Y-1.975
X3.925Y-2.075
X3.925Y-2.175
T9
X5.15Y-1.55
X5.35Y-1.55
X5.15Y-2.45
X5.35Y-2.45
X2.35Y-2.75
X2.35Y-2.95
X5.15Y-2.9
X5.35Y-2.9
X5.15Y-2.0
X5.35Y-2.0
T10
X2.25Y-2.2
X2.45Y-2.2
X2.65Y-2.2
X2.85Y-2.2
T11
X2.35Y-1.4
X2.35Y-1.85
T12
X4.5809Y-2.075
T0
M30
