G04 #@! TF.GenerationSoftware,KiCad,Pcbnew,(5.1.2)-1*
G04 #@! TF.CreationDate,2019-05-13T21:13:34+02:00*
G04 #@! TF.ProjectId,braccio shield,62726163-6369-46f2-9073-6869656c642e,rev?*
G04 #@! TF.SameCoordinates,Original*
G04 #@! TF.FileFunction,Soldermask,Bot*
G04 #@! TF.FilePolarity,Negative*
%FSLAX46Y46*%
G04 Gerber Fmt 4.6, Leading zero omitted, Abs format (unit mm)*
G04 Created by KiCad (PCBNEW (5.1.2)-1) date 2019-05-13 21:13:34*
%MOMM*%
%LPD*%
G04 APERTURE LIST*
%ADD10C,0.150000*%
%ADD11R,2.430000X2.130000*%
%ADD12O,2.430000X2.130000*%
%ADD13O,2.100000X2.100000*%
%ADD14R,2.100000X2.100000*%
%ADD15C,3.600000*%
%ADD16R,1.900000X1.900000*%
%ADD17C,1.900000*%
%ADD18C,1.800000*%
%ADD19O,1.800000X1.800000*%
%ADD20C,2.000000*%
%ADD21O,2.000000X2.000000*%
%ADD22R,2.000000X2.000000*%
%ADD23R,2.200000X2.200000*%
%ADD24O,2.200000X2.200000*%
%ADD25C,3.200000*%
%ADD26R,3.200000X3.200000*%
%ADD27O,4.000000X2.200000*%
%ADD28R,4.000000X2.200000*%
%ADD29R,2.200000X4.000000*%
%ADD30O,2.200000X4.000000*%
%ADD31O,2.000000X1.600000*%
%ADD32O,1.600000X1.600000*%
%ADD33O,3.900000X3.900000*%
%ADD34R,2.400000X2.305000*%
%ADD35O,2.400000X2.305000*%
%ADD36R,2.400000X2.400000*%
%ADD37C,2.400000*%
G04 APERTURE END LIST*
D10*
X45720000Y-30480000D02*
X53340000Y-30480000D01*
X53340000Y-106680000D02*
X45720000Y-106680000D01*
X143510000Y-106680000D02*
X143510000Y-30480000D01*
X53340000Y-106680000D02*
X143510000Y-106680000D01*
X45720000Y-30480000D02*
X45720000Y-106680000D01*
X143510000Y-30480000D02*
X53340000Y-30480000D01*
D11*
X54229000Y-102870000D03*
D12*
X54229000Y-100330000D03*
X54229000Y-97790000D03*
D13*
X77724000Y-35687000D03*
X75184000Y-35687000D03*
D14*
X72644000Y-35687000D03*
D15*
X59690000Y-46990000D03*
X59690000Y-35560000D03*
D16*
X66040000Y-36830000D03*
D17*
X68580000Y-38100000D03*
X66040000Y-39370000D03*
X68580000Y-40640000D03*
X66040000Y-41910000D03*
X68580000Y-43180000D03*
X66040000Y-44450000D03*
X68580000Y-45720000D03*
D18*
X97790000Y-76200000D03*
D19*
X97790000Y-81280000D03*
D20*
X91440000Y-76200000D03*
D21*
X91440000Y-83820000D03*
D19*
X113030000Y-76200000D03*
D18*
X113030000Y-81280000D03*
D19*
X102870000Y-76200000D03*
D18*
X102870000Y-81280000D03*
D21*
X73410000Y-88900000D03*
X75950000Y-88900000D03*
D22*
X82550000Y-40640000D03*
D21*
X113030000Y-88900000D03*
X85090000Y-40640000D03*
X110490000Y-88900000D03*
X87630000Y-40640000D03*
X107950000Y-88900000D03*
X90170000Y-40640000D03*
X105410000Y-88900000D03*
X92710000Y-40640000D03*
X102870000Y-88900000D03*
X95250000Y-40640000D03*
X100330000Y-88900000D03*
X97790000Y-40640000D03*
X96270000Y-88900000D03*
X100330000Y-40640000D03*
X93730000Y-88900000D03*
X105410000Y-40640000D03*
X91190000Y-88900000D03*
X107950000Y-40640000D03*
X88650000Y-88900000D03*
X110490000Y-40640000D03*
X86110000Y-88900000D03*
X113030000Y-40640000D03*
X83570000Y-88900000D03*
X115570000Y-40640000D03*
X81030000Y-88900000D03*
X118110000Y-40640000D03*
X78490000Y-88900000D03*
X118110000Y-88900000D03*
X115570000Y-88900000D03*
D23*
X84455000Y-76200000D03*
D24*
X84455000Y-83820000D03*
D25*
X57150000Y-55880000D03*
X62230000Y-55880000D03*
X67310000Y-55880000D03*
D26*
X72390000Y-55880000D03*
D27*
X59690000Y-69850000D03*
D28*
X59690000Y-74930000D03*
D14*
X100330000Y-88900000D03*
D13*
X102870000Y-88900000D03*
X105410000Y-88900000D03*
X107950000Y-88900000D03*
X110490000Y-88900000D03*
X113030000Y-88900000D03*
X115570000Y-88900000D03*
X118110000Y-88900000D03*
X96270000Y-88900000D03*
X93730000Y-88900000D03*
X91190000Y-88900000D03*
X88650000Y-88900000D03*
X86110000Y-88900000D03*
X83570000Y-88900000D03*
X81030000Y-88900000D03*
D14*
X78490000Y-88900000D03*
X105410000Y-40640000D03*
D13*
X107950000Y-40640000D03*
X110490000Y-40640000D03*
X113030000Y-40640000D03*
X115570000Y-40640000D03*
X118110000Y-40640000D03*
X87630000Y-40640000D03*
X90170000Y-40640000D03*
X92710000Y-40640000D03*
X95250000Y-40640000D03*
X97790000Y-40640000D03*
D14*
X100330000Y-40640000D03*
D11*
X116840000Y-102870000D03*
D12*
X116840000Y-100330000D03*
X116840000Y-97790000D03*
X106680000Y-97790000D03*
X106680000Y-100330000D03*
D11*
X106680000Y-102870000D03*
D12*
X96520000Y-97790000D03*
X96520000Y-100330000D03*
D11*
X96520000Y-102870000D03*
X86360000Y-102870000D03*
D12*
X86360000Y-100330000D03*
X86360000Y-97790000D03*
D11*
X76200000Y-102870000D03*
D12*
X76200000Y-100330000D03*
X76200000Y-97790000D03*
X66040000Y-97790000D03*
X66040000Y-100330000D03*
D11*
X66040000Y-102870000D03*
D29*
X135890000Y-73660000D03*
D30*
X130810000Y-73660000D03*
D29*
X135890000Y-62230000D03*
D30*
X130810000Y-62230000D03*
X130810000Y-39370000D03*
D29*
X135890000Y-39370000D03*
X135890000Y-50800000D03*
D30*
X130810000Y-50800000D03*
D31*
X120650000Y-78740000D03*
D32*
X121920000Y-80010000D03*
X123190000Y-78740000D03*
D18*
X107950000Y-81280000D03*
D19*
X107950000Y-76200000D03*
D22*
X77470000Y-76200000D03*
D21*
X69850000Y-68580000D03*
X77470000Y-73660000D03*
X69850000Y-71120000D03*
X77470000Y-71120000D03*
X69850000Y-73660000D03*
X77470000Y-68580000D03*
X69850000Y-76200000D03*
D33*
X116355000Y-52705000D03*
D34*
X99695000Y-50165000D03*
D35*
X99695000Y-52705000D03*
X99695000Y-55245000D03*
D36*
X59690000Y-85725000D03*
D37*
X64690000Y-85725000D03*
X85090000Y-63580000D03*
D36*
X85090000Y-68580000D03*
X97790000Y-65659000D03*
D37*
X102790000Y-65659000D03*
M02*
